<?xml version="1.0" encoding="UTF-8" standalone="no"?>
<!-- Created with Inkscape (http://www.inkscape.org/) -->

<svg
   version="1.1"
   id="svg9"
   width="1980"
   height="1980"
   viewBox="0 0 1980 1980"
   sodipodi:docname="logoMK.svg"
   inkscape:version="1.2.1 (9c6d41e410, 2022-07-14)"
   xmlns:inkscape="http://www.inkscape.org/namespaces/inkscape"
   xmlns:sodipodi="http://sodipodi.sourceforge.net/DTD/sodipodi-0.dtd"
   xmlns="http://www.w3.org/2000/svg"
   xmlns:svg="http://www.w3.org/2000/svg">
  <defs
     id="defs13" />
  <sodipodi:namedview
     id="namedview11"
     pagecolor="#ffffff"
     bordercolor="#000000"
     borderopacity="0.25"
     inkscape:showpageshadow="2"
     inkscape:pageopacity="0.0"
     inkscape:pagecheckerboard="0"
     inkscape:deskcolor="#d1d1d1"
     showgrid="false"
     inkscape:zoom="0.28686869"
     inkscape:cx="449.6831"
     inkscape:cy="990"
     inkscape:window-width="1366"
     inkscape:window-height="745"
     inkscape:window-x="-8"
     inkscape:window-y="-8"
     inkscape:window-maximized="1"
     inkscape:current-layer="g15" />
  <g
     inkscape:groupmode="layer"
     inkscape:label="Image"
     id="g15">
    <path
       style="fill:#000000;stroke-width:1.94366"
       d="m 439.14928,1531.8772 c -1.85326,-2.998 -2.09988,-8.8146 -1.18145,-27.8656 0.63838,-13.2419 1.87406,-28.3456 2.74595,-33.5632 0.87191,-5.2174 2.33155,-21.4494 3.24368,-36.071 0.91212,-14.6215 2.77091,-37.2197 4.13063,-50.2185 1.35973,-12.9986 3.25444,-34.2692 4.21048,-47.2678 0.95603,-12.9987 2.50373,-32.2435 3.43934,-42.7661 0.93562,-10.5228 2.26691,-26.7023 2.95844,-35.9544 1.11013,-14.853 1.74849,-17.1545 5.45327,-19.6617 3.09223,-2.0929 17.27626,-2.8485 53.92237,-2.873 42.15283,-0.029 50.0443,0.4806 51.81372,3.3399 2.40584,3.8875 1.33461,50.7273 -2.49678,109.1696 -1.25795,19.1885 -2.77633,51.6007 -3.37417,72.0272 -1.15068,39.3153 -5.12555,100.0904 -6.78117,103.6829 -3.59069,7.7917 -10.58589,8.9389 -63.27071,10.3776 -47.92898,1.3089 -52.6742,1.1049 -54.8136,-2.3559 z m 205.80628,-1.6177 c -3.1916,-6.7469 -5.72327,-37.1352 -7.95255,-95.4564 -0.9464,-24.7593 -2.46031,-53.1201 -3.3642,-63.0238 -0.90388,-9.9038 -2.4052,-38.2645 -3.33626,-63.0239 -0.93104,-24.7593 -2.14945,-49.6919 -2.70758,-55.406 -1.70543,-17.4596 -0.89904,-17.7466 49.87728,-17.7466 36.00967,0 43.39724,0.5466 45.12493,3.3382 1.13626,1.8363 2.6857,10.699 3.4432,19.695 1.43991,17.1004 2.85767,24.2347 4.81609,24.2347 2.20467,0 5.19126,-5.4115 5.19126,-9.4063 0,-8.1353 7.33492,-33.6475 10.28203,-35.7627 1.78459,-1.281 18.77624,-1.9335 41.09539,-1.5787 43.09025,0.6854 43.95051,1.038 38.70169,15.8721 -1.54176,4.357 -2.80318,9.9577 -2.80318,12.4458 0,2.4884 -1.425,9.9319 -3.16665,16.5413 -1.74166,6.6096 -4.78893,19.614 -6.77168,28.8987 -1.98279,9.2847 -5.0823,23.4651 -6.88785,31.5119 -1.80553,8.0468 -4.8357,21.7207 -6.73372,30.3865 -1.89801,8.6658 -4.9191,22.3397 -6.71354,30.3864 -1.79442,8.0468 -4.82716,21.7208 -6.73943,30.3865 -1.91224,8.6658 -4.8479,21.8333 -6.5237,29.2612 -1.6758,7.4277 -4.68564,21.1017 -6.68852,30.3864 -4.61741,21.4047 -8.26131,31.1928 -13.55347,36.4062 -3.78462,3.7284 -9.4813,4.2778 -58.11027,5.6046 l -53.9143,1.4712 z m 209.4578,-0.5236 c -2.4751,-5.066 -2.6338,-7.5377 -1.0711,-16.6772 1.0091,-5.9015 2.5962,-19.3396 3.527,-29.8622 0.9307,-10.5228 2.3849,-22.3691 3.2314,-26.3249 0.8465,-3.9561 2.0498,-14.085 2.674,-22.5086 0.6243,-8.4237 2.1324,-21.3931 3.3515,-28.821 1.219,-7.4277 3.0688,-23.0362 4.1105,-34.6858 1.0417,-11.6492 2.2771,-22.0117 2.7452,-23.0275 0.4681,-1.0156 1.9236,-12.2485 3.2344,-24.9617 1.3108,-12.7133 3.5148,-31.218 4.8977,-41.1218 1.3829,-9.9036 2.5407,-21.8513 2.573,-26.5498 0.041,-5.9984 1.2856,-10.1885 4.1782,-14.0679 l 4.1197,-5.5247 h 53.7845 c 64.66234,0 60.53944,-1.9139 58.39314,27.1057 -0.7746,10.4702 -2.866,35.7493 -4.64764,56.1757 -3.1545,36.164 -4.81,56.1313 -8.4912,102.4139 -0.9845,12.3796 -3.2506,37.7017 -5.0354,56.2712 -1.7848,18.5695 -3.2391,35.9902 -3.2317,38.7126 0.012,2.9799 -2.2163,7.2307 -5.5892,10.6809 l -5.6028,5.731 -57.1227,1.4948 -57.1228,1.4945 z m 287.82374,1.8869 c -2.61,-4.2174 -1.1108,-40.913 3.4739,-85.0336 1.7705,-17.0391 3.213,-34.2582 3.2055,-38.2644 0,-4.0066 1.4458,-22.4777 3.2294,-41.0472 1.7834,-18.5696 4.1412,-44.9045 5.2395,-58.5222 3.9265,-48.6879 5.9806,-68.5033 7.2826,-70.2519 2.0947,-2.8132 118.8847,-3.4657 124.3195,-0.6944 4.2047,2.1437 4.5573,3.1638 3.7234,10.7724 -0.5065,4.6225 -1.7488,19.546 -2.7608,33.1637 -1.0121,13.6177 -2.939,35.3946 -4.2825,48.3933 -1.3431,12.9986 -3.1915,35.2821 -4.1076,49.5188 -0.9159,14.2366 -2.3976,31.4556 -3.2926,38.2645 -0.895,6.8087 -2.4219,25.0406 -3.3933,40.5153 -0.971,15.4746 -2.8383,36.2243 -4.1492,46.1102 -3.5666,26.8973 -3.8729,27.1102 -41.6219,28.944 -53.702,2.6086 -84.5053,1.946 -86.8659,-1.8685 z m 283.6577,-3.8812 c -1.8018,-3.9734 -3.7399,-10.3039 -4.3069,-14.0677 -0.567,-3.764 -2.3993,-12.9208 -4.0718,-20.3486 -2.9692,-13.1864 -7.8569,-35.8968 -12.5951,-58.5222 -1.2963,-6.1898 -4.0004,-18.8508 -6.0089,-28.1356 -2.0087,-9.2848 -5.1626,-23.9716 -7.0088,-32.6374 -1.8462,-8.6657 -4.8673,-22.8461 -6.7136,-31.5119 -1.8462,-8.6658 -4.8672,-22.8461 -6.7134,-31.5119 -1.8463,-8.6657 -4.7427,-22.3397 -6.4363,-30.3865 -1.6939,-8.0468 -4.314,-20.1514 -5.8225,-26.899 -2.5898,-11.584 -2.5763,-12.4317 0.2398,-15.1933 2.3153,-2.2704 16.448,-2.9247 63.167,-2.9247 67.1817,0 68.847,0.3293 70.9229,14.0286 0.613,4.045 2.6202,13.9383 4.4604,21.985 1.8402,8.0469 4.9088,21.7207 6.8189,30.3865 1.9102,8.6657 4.7846,21.3268 6.3874,28.1356 1.6029,6.8088 4.5438,19.9763 6.5351,29.2611 1.9915,9.2848 4.4252,19.92 5.4082,23.6339 0.9828,3.714 2.8052,11.817 4.0494,18.0068 1.2443,6.1899 4.2418,19.8637 6.661,30.3865 2.4192,10.5228 5.4408,24.1967 6.7147,30.3866 1.2737,6.1898 3.533,16.3186 5.0206,22.5085 1.4875,6.1898 3.9509,16.5871 5.4742,23.1052 l 2.7693,11.8507 -4.5884,6.1561 c -4.5566,6.1133 -4.7939,6.1659 -34.3434,7.611 -16.3652,0.8003 -43.9275,1.5601 -61.2494,1.6882 l -31.4943,0.2329 z m -438.92874,-376.984 c -4.6964,-1.639 -7.3981,-4.9498 -11.977,-14.6771 -4.9137,-10.4388 -5.3227,-29.7853 -1.3699,-64.7898 4.7678,-42.2227 9.6626,-57.5867 20.7669,-65.1837 16.07414,-10.99754 32.40164,-1.2702 35.52724,21.1652 2.0616,14.7992 -1.0411,64.884 -5.3149,85.7948 -5.3388,26.1231 -11.868,35.6197 -25.88364,37.6479 -4.6155,0.6678 -9.9025,0.687 -11.7487,0.043 z m 17.86444,-29.9482 c 4.7641,-8.6735 10.1163,-80.9025 6.6401,-89.6128 -2.0166,-5.0537 -7.5402,-6.4334 -11.67824,-2.9173 -6.3515,5.3971 -13.7314,87.6636 -8.6068,95.9444 3.0903,4.9938 9.97254,3.2717 13.64494,-3.4143 z m 418.4305,29.4922 c -8.892,-2.3559 -14.3001,-9.9886 -15.58,-21.9889 -1.4045,-13.168 0.3663,-51.7223 3.9634,-86.2829 3.8332,-36.8331 3.8852,-37.0086 11.2027,-37.8289 8.2659,-0.9266 10.2239,3.9498 8.0984,20.1686 -0.8671,6.6182 -2.4152,25.2005 -3.4398,41.294 -1.0248,16.0936 -2.5163,34.3255 -3.3147,40.5155 -1.1914,9.238 -0.9279,12.2369 1.4713,16.7393 3.9498,7.4122 5.6068,7.7964 10.6551,2.4711 3.6505,-3.8509 4.4882,-7.0381 5.4873,-20.8808 0.6485,-8.9852 1.8741,-21.3942 2.7233,-27.5759 0.8493,-6.1817 2.3295,-23.3704 3.2895,-38.197 0.96,-14.8269 2.4991,-28.1756 3.4202,-29.6641 0.9211,-1.4885 3.8858,-3.7398 6.5884,-5.0033 3.9242,-1.8347 5.466,-1.5562 7.6574,1.3828 2.2819,3.0602 2.5505,6.5454 1.5948,20.6921 -0.6322,9.3566 -1.8442,21.5698 -2.6933,27.1407 -0.8493,5.5708 -2.2373,21.2706 -3.0848,34.8881 -1.8691,30.0368 -6.3848,47.8781 -14.1018,55.7172 -5.8245,5.9166 -15.7616,8.5784 -23.9374,6.4124 z M 26.098275,1139.3789 c 0.004,-5.8803 1.08089,-19.8075 2.3937,-30.9492 1.31282,-11.1417 3.19018,-32.4721 4.17193,-47.4011 2.16575,-32.9336 4.5469,-50.6376 7.30486,-54.3113 1.13706,-1.5147 4.98172,-3.013 8.54365,-3.3295 8.4912,-0.7547 11.14159,4.113 11.16355,20.5026 0.0202,15.0133 4.26367,67.1293 5.92918,72.8176 2.03263,6.942 4.45371,3.054 7.47812,-12.0097 1.60487,-7.9932 4.54148,-22.1297 6.52578,-31.4144 1.98431,-9.2846 4.64883,-22.3188 5.92115,-28.9651 2.91567,-15.23 6.55055,-20.0295 15.868435,-20.9526 10.99601,-1.0893 11.60757,1.5161 8.13128,34.6409 -1.59634,15.2111 -3.65124,39.3046 -4.56644,53.5412 -0.91521,14.2366 -2.65309,32.975 -3.86195,41.6408 l -2.197925,15.7559 h -7.45391 c -7.22034,0 -7.44586,-0.2115 -7.19686,-6.7525 0.92816,-24.3805 2.97958,-48.7237 4.1906,-49.7274 0.78466,-0.6502 1.41512,-5.9339 1.40098,-11.7411 -0.0186,-7.647 -0.47437,-9.6275 -1.65268,-7.1825 -0.89485,1.857 -1.63855,7.1242 -1.65269,11.7051 -0.0167,5.2551 -1.01351,9.0703 -2.70226,10.3378 -1.47213,1.1047 -3.69158,7.4856 -4.93213,14.1796 -1.24057,6.6939 -3.66861,18.2481 -5.39567,25.6759 l -3.14009,13.5051 h -8.29201 -8.29201 l -1.32406,-28.1356 c -0.72824,-15.4746 -1.77617,-32.6936 -2.32873,-38.2644 -0.92012,-9.2765 -1.11236,-9.6175 -2.2847,-4.0516 -0.70402,3.3425 -2.21067,19.0422 -3.34808,34.8882 -1.13743,15.846 -2.74997,30.5835 -3.58342,32.7499 -1.05695,2.7475 -3.52847,3.9389 -8.16986,3.9389 h -6.65448 l 0.007,-10.6915 z m 178.561345,7.4987 c -0.96674,-3.3785 -0.0118,-8.4555 12.74168,-67.7089 1.86513,-8.6658 4.85888,-23.0634 6.65276,-31.9948 1.7939,-8.9312 4.05782,-18.2337 5.03094,-20.6724 0.97313,-2.4383 1.76931,-6.3322 1.76931,-8.653 0,-6.447 3.61113,-11.6251 9.74177,-13.9693 9.80782,-3.7502 10.93758,-0.023 14.31651,47.2247 1.63506,22.8634 3.12184,54.2309 3.30394,69.7055 l 0.33111,28.1356 h -7.55272 -7.55273 l -0.86431,-11.5115 c -1.08481,-14.4484 -3.92419,-19.3192 -10.74142,-18.4273 -4.60829,0.6032 -5.54748,2.0405 -8.53486,13.0609 -1.84623,6.8108 -3.9678,13.6477 -4.71462,15.1931 -1.88773,3.9069 -12.78567,3.6075 -13.92736,-0.3826 z m 34.37464,-52.5473 c 1.60688,-4.0264 0.19839,-19.8572 -2.23695,-25.1415 -1.9692,-4.2729 -3.80911,0.732 -5.17876,14.087 -0.84168,8.2073 -0.54442,11.5777 1.14795,13.0158 3.33642,2.8347 4.49898,2.471 6.26776,-1.9613 z m 126.09747,45.0486 c 0.004,-5.8803 1.08089,-19.8075 2.39369,-30.9492 1.31282,-11.1417 3.1902,-32.4721 4.17194,-47.4011 3.67555,-55.8927 5.1058,-59.5282 23.40486,-59.4922 8.19707,0.016 13.41749,1.4423 19.74551,5.3936 8.01111,5.0025 8.74038,6.1433 10.61079,16.5995 1.48339,8.2924 1.54184,14.6128 0.22359,24.1761 -2.04437,14.8311 -2.94672,16.8411 -13.20691,29.4175 l -7.51267,9.2085 4.59156,15.3917 c 2.52537,8.4655 5.21454,16.9827 5.97593,18.9272 5.85303,14.9469 8.58046,25.4941 7.10455,27.4732 -0.91004,1.2207 -5.24192,1.9047 -9.62639,1.5202 l -7.97179,-0.6989 -6.21317,-20.2577 c -7.71059,-25.1399 -9.98927,-30.8274 -11.76196,-29.3582 -0.76596,0.635 -1.93799,11.0454 -2.60452,23.1342 -0.66652,12.0892 -1.98259,23.2461 -2.92459,24.7936 -0.94201,1.5475 -5.01898,2.8135 -9.05994,2.8135 h -7.34722 l 0.007,-10.6915 z m 36.28199,-75.4035 c 8.66183,-13.268 10.44552,-28.8958 4.08626,-35.8015 -4.55787,-4.9496 -9.02432,-5.3286 -11.70717,-0.9933 -1.07475,1.7366 -2.4123,11.8654 -2.97236,22.5085 l -1.01829,19.3507 h 4.15267 c 2.28398,0 5.64047,-2.2789 7.45889,-5.0644 z m 123.16445,75.4035 c 0.004,-5.8803 1.09914,-19.8075 2.43426,-30.9492 1.33513,-11.1417 3.20498,-32.419 4.15519,-47.2827 2.02262,-31.639 4.41455,-50.1009 7.04094,-54.3449 2.7187,-4.3931 11.11586,-3.8092 12.97406,0.9022 1.55306,3.9377 -1.007,48.946 -4.51298,79.3423 -0.92813,8.0468 -2.20548,23.7465 -2.83854,34.8883 -1.48495,26.1343 -2.32183,28.1355 -11.766,28.1355 h -7.49368 l 0.007,-10.6915 z m 120.83685,7.1755 c 0,-1.934 1.16004,-8.7709 2.57784,-15.1933 1.41782,-6.4223 3.99581,-18.2609 5.72885,-26.3076 3.70165,-17.1873 8.78424,-40.3036 13.3622,-60.7729 1.79966,-8.0468 3.75478,-17.875 4.34473,-21.84 1.68978,-11.358 6.89713,-18.6754 13.29008,-18.6754 9.19576,0 10.58457,4.374 11.79232,37.1392 0.5932,16.0933 2.28523,45.6311 3.76003,65.6391 1.4748,20.0081 2.20521,38.0428 1.62315,40.0768 -0.81872,2.8614 -2.86703,3.5432 -9.04774,3.0117 -7.81773,-0.672 -7.99883,-0.8563 -8.42561,-8.5649 -1.14085,-20.6062 -1.8094,-22.5085 -7.90999,-22.5085 -6.55487,0 -12.63363,8.3398 -12.63363,17.3329 0,10.5017 -2.84456,14.1789 -10.96855,14.1789 -5.67453,0 -7.49368,-0.8534 -7.49368,-3.516 z m 34.26958,-49.6197 c 2.08961,-1.0753 2.65486,-4.9092 2.65486,-18.0068 0,-9.1523 -0.66057,-16.6406 -1.46791,-16.6406 -0.80736,0 -3.19088,7.186 -5.29671,15.9691 -3.22111,13.4344 -3.45431,16.287 -1.46926,17.9723 2.85459,2.4236 2.36242,2.3612 5.57902,0.706 z m 125.68107,49.4005 c -0.58785,-2.0544 -0.17143,-10.9171 0.92537,-19.695 1.0968,-8.7778 2.68878,-26.5949 3.53772,-39.5936 2.27817,-34.8828 6.98827,-77.2339 8.96163,-80.5792 1.04597,-1.7731 4.4052,-2.6596 8.53027,-2.2508 6.02823,0.5972 6.93398,1.4447 7.93653,7.4266 0.62245,3.7139 2.32857,13.8428 3.79137,22.5086 1.4628,8.6658 3.4065,22.2204 4.3194,30.1216 0.9129,7.9014 2.0633,14.9072 2.5564,15.5685 2.5024,3.3561 3.2347,-2.0924 7.1702,-53.3469 1.1002,-14.328 1.8959,-17.2745 5.6852,-21.0499 3.7018,-3.6884 5.0143,-3.9532 8.2131,-1.6574 3.6756,2.638 3.7705,3.4819 2.7456,24.4263 -0.5839,11.9316 -2.1679,32.3288 -3.52,45.3275 -1.3522,12.9987 -3.1956,34.0798 -4.0965,46.8468 -0.9009,12.767 -2.5388,24.6684 -3.6398,26.4475 -1.101,1.7791 -4.8769,3.2346 -8.3908,3.2346 -6.2762,0 -6.4348,-0.2115 -8.9927,-12.0118 -1.4322,-6.6067 -3.3911,-19.4562 -4.3533,-28.5545 -1.89348,-17.9042 -8.16494,-38.1848 -10.25745,-33.1704 -0.67304,1.6128 -1.70365,16.5845 -2.29026,33.2703 -1.47911,42.072 -1.07482,40.4664 -10.18975,40.4664 -5.50717,0 -7.86502,-1.0192 -8.64223,-3.7352 z m 443.14473,0.18 c -1.3085,-4.5728 0.613,-39.0803 3.6247,-65.0956 1.2898,-11.1418 2.8641,-30.672 3.4984,-43.4004 1.3672,-27.4381 4.2764,-34.9616 13.0754,-33.8143 l 5.2608,0.6858 0.4848,19.6949 c 0.3859,15.6714 0.9968,19.695 2.9899,19.695 1.3778,0 2.9368,-1.7726 3.4648,-3.939 4.3478,-17.8461 10.2871,-32.8026 13.7299,-34.5754 11.4874,-5.91543 16.2389,1.0357 10.4914,15.3486 -8.8994,22.163 -16.8946,47.1838 -16.8946,52.8724 0,3.4589 1.516,12.6235 3.3687,20.3657 1.8528,7.7423 4.8325,20.1541 6.6213,27.582 3.1342,13.0114 4.0413,19.3394 3.6304,25.322 -0.2525,3.677 -14.6533,3.7844 -16.341,0.1216 -1.3817,-2.9982 -6.5984,-26.7319 -9.3032,-42.3254 -1.8136,-10.4557 -3.9576,-15.3318 -5.7087,-12.9835 -0.5524,0.741 -2.0481,12.68 -3.3238,26.5313 -1.2756,13.8511 -3.1943,26.5981 -4.2641,28.3265 -2.7142,4.386 -13.1173,4.0879 -14.4051,-0.4126 z m 316.7199,0.2776 c -1.1156,-1.8027 -1.5659,-4.2811 -1.0007,-5.5077 0.5652,-1.2264 2.1479,-18.6021 3.5169,-38.6122 1.3693,-20.0103 2.8354,-37.1327 3.258,-38.0501 0.4227,-0.9173 1.5595,-12.9152 2.5263,-26.6619 0.9666,-13.7468 2.1657,-26.4211 2.6645,-28.1648 2.5501,-8.9115 24.9262,-11.33043 36.9682,-3.9963 10.2914,6.2681 14.8028,17.417 13.5952,33.5985 -1.1777,15.7792 -6.5207,30.2716 -13.9693,37.8909 -8.5036,8.6981 -8.0253,13.7887 4.6291,49.2685 1.79,5.0184 3.4171,12.1086 3.6156,15.7559 0.3428,6.299 0,6.6665 -6.8962,7.3317 -8.521,0.8222 -11.4213,-1.766 -12.9403,-11.5473 -0.6115,-3.9379 -2.0714,-9.2004 -3.2445,-11.6945 -1.173,-2.494 -2.6581,-7.7417 -3.2998,-11.6615 -0.6421,-3.9197 -2.199,-8.275 -3.4599,-9.6784 -3.1357,-3.4897 -5.108,1.8801 -7.4582,20.3065 -3.3087,25.9386 -2.8072,24.7003 -10.0005,24.7003 -3.6224,0 -7.37,-1.4442 -8.5044,-3.2776 z m 37.4516,-84.5163 c 7.8204,-12.4638 7.5214,-33.6763 -0.5231,-37.1005 -6.3253,-2.6922 -9.6595,2.3375 -11.6352,17.5517 -3.0272,23.3129 -2.6819,26.3121 3.029,26.3121 3.3701,0 6.2024,-2.0981 9.1293,-6.7633 z m 118.1102,84.9074 c -0.4543,-1.5876 0.9046,-10.4504 3.0195,-19.6949 3.7608,-16.4386 7.7383,-34.6219 14.5087,-66.3271 1.8506,-8.6657 4.3921,-19.8074 5.648,-24.7593 1.2559,-4.9519 2.7898,-12.8265 3.4086,-17.4991 0.6353,-4.7977 2.6642,-9.9416 4.6608,-11.817 4.9852,-4.6827 13.3024,-4.2394 15.6654,0.8347 3.5313,7.5831 10.5629,136.3748 7.6585,140.2698 -0.8968,1.2027 -4.5622,1.8641 -8.1455,1.4703 l -6.5152,-0.7163 -1.0119,-12.6218 c -1.2858,-16.036 -2.1569,-17.7646 -8.9519,-17.7646 -6.5159,0 -8.9227,3.1841 -10.3713,13.7196 -1.8204,13.2402 -4.9551,17.7922 -12.2525,17.7922 -3.7355,0 -6.8461,-1.2264 -7.3212,-2.8865 z m 34.1448,-51.2131 c 5.0817,-3.6472 3.6616,-23.297 -1.5861,-21.9481 -3.579,0.9198 -7.0615,15.1001 -4.9951,20.3393 1.8137,4.5979 2.2634,4.7078 6.5812,1.6088 z m 125.7751,42.2828 c 0,-6.4994 1.0695,-20.9329 2.3683,-32.0746 1.2987,-11.1418 2.8408,-28.3608 3.4268,-38.2646 1.5451,-26.1223 4.4687,-53.425 6.2005,-57.9077 2.4847,-6.4317 7.3992,-8.8474 12.125,-5.9598 4.683,2.8615 7.0071,9.5485 8.5075,24.4777 0.9391,9.3452 6.7596,44.0248 8.6779,51.7065 1.9858,7.951 3.7092,-4.4018 4.8238,-34.5747 1.2654,-34.2608 2.704,-40.3296 10.1535,-42.837 9.5296,-3.20764 11.1881,7.0305 6.7592,41.7291 -1.3245,10.3753 -3.2502,32.0317 -4.2796,48.1252 -1.0295,16.0937 -2.8052,35.3384 -3.9461,42.7662 l -2.0746,13.5051 -7.1175,0.6951 c -6.6685,0.6512 -7.2604,0.2254 -9.384,-6.7526 -1.2466,-4.0961 -2.7622,-12.512 -3.3678,-18.7018 -0.9549,-9.7573 -6.6872,-45.6556 -8.776,-54.9595 -2.0425,-9.0975 -3.8968,4.7464 -5.195,38.7885 -1.5913,41.7233 -1.6629,41.9613 -12.6146,42.0214 l -6.294,0.033 v -11.817 z M 486.55769,941.80443 c -0.54119,-1.89135 0.21239,-16.32488 1.67459,-32.0746 2.55728,-27.545 4.33098,-48.15607 7.88783,-91.65976 0.91094,-11.14172 3.11344,-36.97025 4.89445,-57.39671 5.2515,-60.23002 6.79455,-78.63176 8.58774,-102.41369 0.93345,-12.37967 2.78967,-33.1438 4.1249,-46.14244 1.33523,-12.99867 3.17742,-35.31867 4.09375,-49.6 0.91633,-14.28133 2.35679,-30.9939 3.20103,-37.13904 0.84424,-6.14514 2.08129,-19.78248 2.749,-30.30521 1.55437,-24.49589 2.71812,-28.30689 9.50786,-31.1361 6.47417,-2.69771 65.82189,-6.82902 110.18519,-7.6702 l 30.7775,-0.58359 3.91307,6.56096 c 3.27289,5.48757 4.07115,10.09069 4.87922,28.13563 0.53138,11.86609 1.75116,34.23573 2.71064,49.71032 0.95947,15.4746 2.48804,42.82244 3.39681,60.77297 0.90879,17.95054 2.39192,44.2855 3.29586,58.52215 0.90396,14.23659 2.41961,41.58444 3.36814,60.77294 0.94851,19.18851 2.85076,51.60077 4.22722,72.02717 1.37644,20.42657 3.23684,54.35808 4.13419,75.40357 0.89735,21.04543 2.34623,45.83694 3.21974,55.09215 1.08766,11.52421 1.02897,17.73129 -0.18621,19.69486 -2.47947,4.00664 -92.03673,4.1634 -95.01717,0.16639 -1.22179,-1.63856 -2.01406,-9.59906 -2.01406,-20.23706 0,-9.64485 -1.11542,-32.48539 -2.47872,-50.75668 -1.3633,-18.2714 -3.23473,-53.37146 -4.15873,-78.00018 -2.11195,-56.29297 -3.19675,-59.69137 -7.58678,-23.76759 -1.43022,11.70359 -3.72821,49.64 -5.10663,84.30305 -2.76344,69.49079 -3.8054,84.16377 -6.27372,88.34596 -1.25865,2.13255 -13.20135,2.81357 -49.34167,2.81357 -41.21982,0 -47.81442,-0.46603 -48.66504,-3.43873 z m 322.54739,1.29127 c -1.24473,-2.70095 3.47784,-27.734 14.24456,-75.5069 1.95303,-8.66576 4.53934,-20.82043 5.74738,-27.01024 1.20801,-6.1898 3.45141,-16.82505 4.98531,-23.63394 1.53394,-6.80878 4.34963,-19.46981 6.25703,-28.13557 1.9074,-8.66577 4.8089,-21.83327 6.4476,-29.26108 3.4021,-15.41998 8.7278,-40.06581 13.619,-63.02385 1.8462,-8.66576 4.7654,-22.33969 6.4871,-30.38647 1.7218,-8.04679 4.7401,-22.22713 6.7074,-31.51193 1.9673,-9.28473 4.3447,-19.92003 5.2831,-23.63394 0.9383,-3.71391 3.1695,-13.84271 4.9582,-22.50849 1.7886,-8.66577 4.7936,-22.84613 6.6778,-31.51191 6.2927,-28.94131 8.2489,-38.15545 11.5302,-54.30889 4.847,-23.86076 10.2061,-37.49237 15.4467,-39.29072 5.9978,-2.05815 75.9286,-6.3992 114.50314,-7.10796 l 31.6065,-0.58072 3.4153,5.62713 c 3.1033,5.11274 3.3138,7.58176 2.3032,27.01021 -0.6118,11.76069 -2.1428,30.49903 -3.4024,41.64074 -1.2595,11.14171 -2.782,29.37361 -3.3833,40.51531 -0.6014,11.14172 -2.1215,28.86717 -3.3781,39.38991 -1.2567,10.52274 -2.7768,28.24818 -3.3782,39.3899 -0.6013,11.14166 -2.1117,29.37358 -3.3564,40.5153 -1.2446,11.14172 -2.7456,29.37358 -3.3355,40.5153 -0.5897,11.14172 -2.0967,28.86721 -3.3489,39.38996 -1.2521,10.52263 -2.7793,28.75449 -3.3935,40.5153 -0.6145,11.76069 -1.8242,26.44081 -2.6884,32.62246 -0.8642,6.18165 -2.318,23.40073 -3.2307,38.26446 -1.9879,32.37395 -4.9156,57.48406 -7.157,61.38213 -1.2696,2.20826 -13.3284,2.71221 -53.86034,2.25085 l -52.2244,-0.59434 0.2853,-13.94815 c 0.1569,-7.67154 1.439,-21.34546 2.8492,-30.38652 1.4101,-9.04101 3.0476,-22.51564 3.6389,-29.94334 0.5912,-7.42787 2.0673,-19.58242 3.2803,-27.01029 1.2129,-7.42782 2.7009,-20.08885 3.3066,-28.13563 0.6057,-8.04673 2.1507,-20.2014 3.4333,-27.01013 1.2825,-6.80889 2.5603,-19.9764 2.8395,-29.26113 0.4096,-13.62336 0.034,-16.88136 -1.9472,-16.88136 -1.4196,0 -3.0459,3.32224 -3.8564,7.87798 -1.603,9.01041 -7.3315,35.08847 -10.6303,48.39328 -1.2278,4.95186 -2.973,13.05501 -3.8783,18.00675 -0.9053,4.95191 -3.6309,17.61294 -6.057,28.13569 -2.426,10.52274 -5.4527,24.19661 -6.7258,30.38653 -1.2732,6.1898 -4.2841,19.86367 -6.691,30.38641 -2.4068,10.5228 -5.1301,23.15886 -6.0517,28.08034 -0.9216,4.92131 -2.5777,9.71707 -3.6801,10.65707 -2.9783,2.53924 -83.01906,2.18801 -84.19768,-0.36951 z M 947.52406,724.52694 c 0,-4.01709 -0.6992,-6.3059 -1.6784,-5.49427 -2.1853,1.81125 -2.1853,12.37967 0,12.37967 0.9231,0 1.6784,-3.09842 1.6784,-6.8854 z m 242.80624,219.21564 c -1.88,-2.52102 -1.2511,-23.88572 1.2888,-43.78433 1.3244,-10.37531 3.2485,-32.45996 4.276,-49.07671 1.0275,-16.61687 2.2029,-30.93885 2.6121,-31.82659 0.4091,-0.88768 1.9079,-17.96552 3.3307,-37.95086 1.4229,-19.98523 3.2544,-41.11425 4.0701,-46.95328 0.8157,-5.83903 1.9858,-20.23886 2.6001,-31.99955 0.6144,-11.7607 2.1416,-29.99261 3.3935,-40.5153 1.2524,-10.52274 2.7594,-28.24819 3.3491,-39.3899 0.5899,-11.14172 2.085,-29.3736 3.3222,-40.51532 1.2375,-11.14171 2.7432,-28.86717 3.3459,-39.38989 0.9545,-16.66399 3.8217,-45.90817 6.7711,-69.06347 0.7182,-5.63835 2.0632,-7.646 6.3123,-9.4221 6.0613,-2.53352 67.6715,-7.04676 96.1953,-7.04676 19.5139,0 21.8801,1.12878 24.6946,11.78007 1.226,4.63958 -1.2311,45.56506 -4.6307,77.12853 -1.3333,12.37968 -2.9041,31.11802 -3.4909,41.64075 -0.5866,10.52273 -1.7802,24.19664 -2.6523,30.3865 -0.8723,6.1898 -2.3372,23.9153 -3.2556,39.38985 -0.9182,15.4746 -2.4199,33.70651 -3.3369,40.51535 -0.9169,6.80884 -2.4167,24.02781 -3.3326,38.26445 -0.9161,14.23665 -2.7501,36.52003 -4.0757,49.51873 -1.3255,12.99859 -3.2405,34.77566 -4.255,48.39323 -1.0147,13.61767 -2.5129,30.33022 -3.3294,37.13911 -0.8164,6.80878 -1.5394,19.72305 -1.6069,28.69836 -0.097,12.98559 0.3851,16.31868 2.363,16.31868 1.3672,0 2.9803,-2.7855 3.5849,-6.18991 0.6047,-3.40437 2.0856,-8.72196 3.2914,-11.817 1.2057,-3.09488 5.6953,-16.76875 9.9771,-30.38642 4.2816,-13.61768 9.1324,-28.81091 10.7793,-33.76282 1.6471,-4.9518 4.1573,-12.54842 5.5782,-16.88136 1.4207,-4.33282 4.0903,-12.43592 5.9323,-18.0068 1.8418,-5.57084 5.4203,-16.71255 7.9521,-24.75934 2.5319,-8.04684 6.0067,-18.93527 7.7223,-24.19661 1.7152,-5.2614 4.6761,-14.37733 6.5797,-20.25771 1.9035,-5.88032 4.4742,-13.73017 5.7128,-17.44408 3.5416,-10.62011 8.4148,-25.74624 13.4159,-41.64075 4.2205,-13.41371 7.499,-23.48707 13.553,-41.64074 1.2385,-3.71391 3.7056,-11.31053 5.4821,-16.88136 7.401,-23.20614 19.3669,-60.33669 22.4864,-69.77638 5.4955,-16.62908 8.3548,-25.38626 11.3914,-34.88819 10.1561,-31.77951 14.2328,-40.48981 20.1652,-43.0861 6.4469,-2.82135 68.8291,-7.55804 99.5396,-7.55804 20.2143,0 22.1822,0.83763 26.3182,11.20181 1.6006,4.01037 -1.9402,22.09249 -6.44,32.88824 -1.7364,4.16635 -15.884,43.76579 -30.4867,85.33387 -3.914,11.14172 -11.6268,32.91868 -17.1394,48.39328 -5.5129,15.4746 -13.0615,36.74515 -16.7747,47.26789 -3.7134,10.52274 -10.7351,30.27392 -15.604,43.89159 -8.1584,22.81821 -12.632,35.42715 -33.9397,95.66116 -7.6977,21.76043 -17.7295,49.90528 -34.6992,97.34929 l -9.4596,26.44751 h -123.8793 c -68.1337,0 -124.3829,-0.67528 -124.9981,-1.50058 z"
       id="path177" />
  </g>
</svg>
